<?xml version="1.0" standalone="no"?>
<!DOCTYPE svg PUBLIC "-//W3C//DTD SVG 20010904//EN"
 "http://www.w3.org/TR/2001/REC-SVG-20010904/DTD/svg10.dtd">
<svg version="1.0" xmlns="http://www.w3.org/2000/svg"
 width="512.000000pt" height="512.000000pt" viewBox="0 0 512.000000 512.000000"
 preserveAspectRatio="xMidYMid meet">
<metadata>
Created by potrace 1.11, written by Peter Selinger 2001-2013
</metadata>
<g transform="translate(0.000000,512.000000) scale(0.100000,-0.100000)"
fill="#000000" stroke="none">
<path d="M1550 3866 l0 -43 86 -6 c118 -8 170 -34 204 -102 l25 -50 0 -1095
c0 -1180 2 -1141 -53 -1193 -33 -31 -124 -57 -204 -57 l-58 0 0 -50 0 -50 560
0 560 0 0 49 0 48 -90 5 c-121 7 -175 34 -210 103 l-25 50 -3 548 -3 547 188
0 c443 -1 539 -54 590 -327 l17 -93 58 0 58 0 -2 468 -3 467 -56 3 -55 3 -12
-74 c-18 -119 -47 -185 -106 -242 -83 -82 -192 -104 -508 -105 l-168 0 0 570
0 570 218 0 c308 0 429 -18 562 -83 147 -72 251 -226 307 -455 l28 -114 60 7
c33 4 61 7 61 8 1 1 -10 167 -24 370 l-27 367 -987 0 -988 0 0 -44z"/>
</g>
</svg>
